<svg xmlns="http://www.w3.org/2000/svg" viewBox="0 0 1080 194.67"><defs><style>.a{fill:#fff;}.b{fill:#6bbfba;}.c{fill:#132c48;}.d{fill:none;}.e{fill:#ccc;}.f{fill:#dff1f0;}.g{fill:#bce3e1;}</style></defs><path class="a" d="M1071.5,102.63l-2.64-2c-2.52-1.92-5.08-3.79-7.83-5.74A237.8,237.8,0,0,0,979,57.43c-26-6.19-47.46-6.38-59-6.48h-.56a150.36,150.36,0,0,0-18.49-15.72c-22-15.87-49.3-26.34-78.83-30.28L789.59.62l26.59,19.17a71.5,71.5,0,0,1,14.17,13.47,65.2,65.2,0,0,1,7.24,11.34L839.3,48l.08.43h-43l-2,1.32-21.6,13.92,1-5.48,1.84-9.76H740.27L739,55.16l-1.16,6.14a23.51,23.51,0,0,0-21-12.85h-65l-1.46,6.4L639.3,103.26c-19.54-60-61.59-87.3-119.47-102,6,16.39,11.06,28.77,13.92,47.15h-28.9l-1.44,6.44-5.92,26.44-3.73,0c-5.86,0-11.71.18-17.51.52l5.44-23.26,2.36-10.11H282.14l-1.26,6.73c-.56,3-1.46,7.28-2.54,12.21a23.54,23.54,0,0,0-23.09-18.94H183c-7.55,0-80.5-.69-88.05-.69H28.74a19.63,19.63,0,0,0-19.29,16L4.58,89.85.34,112.57a19.62,19.62,0,0,0,19.3,23.23H205.42l1.63-6.12L215,99.81l24,32.64,2.47,3.35h22l-.13.7h34.89l1.45-6.42,5.13-22.72H344l-.87,3.88-3.26,14.53-2.25,10H463.65l1.48-6.36,6.64-28.4c7,.35,14,1,20.88,1.86l-5.12,22.87-2.25,10,77.57.67,2.28-4.53q1.53-3.06,2.89-6.15c42.61,21.77,63,49.51,79.46,69.5,1.16-22.67,2.54-37.26-.63-59.49h20.2l1.62-6.12,7.91-29.87,24,32.64L703,135.8h56.11l1.27-6.7,2.69-14.26,22.21,19,2.31,2h51.1l-2.33-2c12,6.65,28.83,15.36,47.32,23.66C917,172.34,942,179.91,958.06,179.91c7.18,0,12.75-1.46,17-4.47a29.87,29.87,0,0,0,6.52-6.06l3.64-4.79L997,149.15l-8.62,1,1-5.82,5.78.43c1,.07,2,.11,3.06.11.69,0,1.39,0,2.07,0a37.9,37.9,0,0,0,20.06-6.71l.25-.18,1.08-.18,1.44-.23a100,100,0,0,0,45.83-19.83l2.62-2,8.45-6.56Z" transform="translate(0 -0.62)"/><path class="b" d="M255.25,56.69H196.78l-16.22,70.88h18.53l15-56.88H252l-2.32,17.37H216.53l29.05,39.51H266.5L249.07,102h4.11a15.34,15.34,0,0,0,15.18-13.19l2.07-14.66A15.33,15.33,0,0,0,255.25,56.69Z" transform="translate(0 -0.62)"/><path class="b" d="M102.32,65.48q-2.23,9.49-4.48,19a11.41,11.41,0,0,0,11.11,14h48.77l-2.84,14.53H91.66L88.4,127.57h70.24a14.51,14.51,0,0,0,14.44-13.17l5.28-21.63a8,8,0,0,0-8-8.78H116l3.42-13.3H179.8l3.16-14H113.44A11.43,11.43,0,0,0,102.32,65.48Z" transform="translate(0 -0.62)"/><path class="b" d="M35.37,70H91.75l3.16-14H28.74a11.4,11.4,0,0,0-11.2,9.3C15,79.05,11.12,99.7,8.43,114.09a11.39,11.39,0,0,0,11.21,13.48H78.76L82,113l-54.45-.11C30.31,97.65,34.32,75.87,35.37,70Z" transform="translate(0 -0.62)"/><path class="b" d="M305.07,70.68h42.2l3.15-14H289c-2.85,15.26-13.56,59.56-15.8,71.57h18.4l6.58-29.13h42.69l3.15-14H301.32l3.26-14.45Z" transform="translate(0 -0.62)"/><polygon class="c" points="826.7 56.07 798.81 56.07 761.11 80.38 765.69 56.07 747.1 56.07 733.73 126.95 752.33 126.95 757.65 98.72 790.67 126.95 816.82 126.95 774.99 90.34 826.7 56.07"/><path class="c" d="M532.92,13.11c14,38.21,15.75,79-3.47,115,13.88.08,16.71.12,28.32.1,11.63-23.2,15.3-47.42,8.86-73.89A124.79,124.79,0,0,1,609,128h0l27.47.11h.45C627.84,72.75,589.25,27.37,532.92,13.11Z" transform="translate(0 -0.62)"/><path class="c" d="M628.21,96.74c1.8,4.66,3.51,9.61,5,14.84a187.19,187.19,0,0,1,7.09,62.08,216.92,216.92,0,0,0-36.57-35.16C546.36,95.05,482,92,452.78,92.54c58.28-8.87,127.87,1.93,172,31.81" transform="translate(0 -0.62)"/><path class="c" d="M716.87,56.69H658.4l-16.22,70.88h18.53l15.06-56.88H713.6l-2.33,17.37H678.16l29.05,39.51h20.91L710.69,102h4.11A15.33,15.33,0,0,0,730,88.82l2.07-14.66A15.33,15.33,0,0,0,716.87,56.69Z" transform="translate(0 -0.62)"/><path class="c" d="M361.78,65.48q-2.23,9.49-4.48,19a11.41,11.41,0,0,0,11.11,14h48.77l-2.84,14.53H351.12l-3.26,14.52H418.1a14.49,14.49,0,0,0,14.43-13.17l5.29-21.63a8,8,0,0,0-8-8.78H375.48l3.42-13.3h60.36l3.16-14H372.9A11.43,11.43,0,0,0,361.78,65.48Z" transform="translate(0 -0.62)"/><path class="d" d="M442.87,127.57" transform="translate(0 -0.62)"/><polygon class="c" points="453.74 56.07 437.86 126.95 457.12 126.95 473.67 56.07 453.74 56.07"/><polygon class="c" points="511.44 56.07 495.57 126.95 514.82 126.95 531.38 56.07 511.44 56.07"/><path class="c" d="M983.28,120.58A27.31,27.31,0,0,0,963,142.41a6,6,0,0,0,5.69-.14,5.39,5.39,0,0,1-2.88,5.13,12.19,12.19,0,0,0,8.15-2.4,13.21,13.21,0,0,1-.8,4,13.54,13.54,0,0,1-1.29,2.64,3.9,3.9,0,0,0,2.85,0,3.79,3.79,0,0,0,1.78-1.52,7.27,7.27,0,0,1-.07,2.29,6.9,6.9,0,0,1-1.06,2.55,5.15,5.15,0,0,0,2.14-.38,5.39,5.39,0,0,0,1.95-1.35,13.34,13.34,0,0,1-1.46,4.18,13.88,13.88,0,0,1-5.58,5.48,28.41,28.41,0,0,1-13.24-.45c-12.87-3.63-22.39-16.9-25.11-33.69a47.47,47.47,0,0,1,10-12.12,50.34,50.34,0,0,1,26-11.37c26.1-4,47.19,14.92,50.06,17.57-.09.45-.18.89-.28,1.34l-14.43,5.09a26.51,26.51,0,0,0-6.09-5A28.09,28.09,0,0,0,983.28,120.58Z" transform="translate(0 -0.62)"/><path class="c" d="M999.87,136.62a34,34,0,0,1-4.12-.05l-6.17-.46,1-.9a36.48,36.48,0,0,1-4-.16l-8-.76,6.33-3.64c-1.39,0-2.78,0-4.16-.09l-6.92-.42,4-3c-1.86.34-3.73.62-5.6.81l-4.94.51,2.38-4.18a25.2,25.2,0,0,1-5.14.34l-5.26-.17,3.4-4,.26-.31a31,31,0,0,1-5.69.53h-4.81l2.19-3.24a22,22,0,0,1-2.57.12l-5,0,6.56-9,.41-.26a21,21,0,0,1,6.19-2.66c4.54-1.13,7.46-.91,8.73.65l.14,0,2.34-1.15-.7.8c3.31-.6,5.42-.25,6.42,1.62a3,3,0,0,1,.23.52c3.52-1,5.9-.81,7.15,1.1a3.47,3.47,0,0,1,.58,2,30.06,30.06,0,0,1,3.36-.53c1.64-.16,4.37-.44,5.85,1.66a4,4,0,0,1,.72,2c1-.1,2-.14,3-.14,3.37,0,7.57,0,8.59,3.08a3.53,3.53,0,0,1,.14.56,5.65,5.65,0,0,1,4.84,2.57,3.89,3.89,0,0,1,.49,1.29,16.84,16.84,0,0,1,7.95.12l3.78,1-2.4,3.07a27.79,27.79,0,0,1-5.94,5.68A29.74,29.74,0,0,1,999.87,136.62Zm6.75-8.38-3.33,2.85a23.69,23.69,0,0,0,9.34-3.86c.35-.25.7-.51,1-.78a12.67,12.67,0,0,0-5.59,2.69l-.14.12-.31.26-.38.15Zm-6.77-3.69-4.16,4.28-.85.85a27.46,27.46,0,0,0,3.58-.87l7.07-2.2-.6-.87-.3-.35,0,0h0l.17-.14a10.52,10.52,0,0,0,2.16-2.36,8.2,8.2,0,0,0-3.74.52ZM991.33,120l-2.6,3.63q-.65.9-1.35,1.74l1.25-.11a47.35,47.35,0,0,0,4.7-.75l1.2-.25,6-5.09c-.87,0-1.81,0-2.37,0a27.2,27.2,0,0,0-6,.7Zm-11.49-1.87-2.1,3-.65.94c1.24-.24,2.47-.51,3.68-.82,1.7-.43,3.4-.93,5.05-1.5l1.24-.43,2.37-3.42c.08-.12.16-.25.23-.38-.17,0-.37,0-.59,0a28.07,28.07,0,0,0-8.08,2.1Zm-8.65-2.56-.42,1.1a25.16,25.16,0,0,1-1.06,2.37c.34-.07.67-.15,1-.24a20.1,20.1,0,0,0,3.8-1.45l.62-.31,2.94-3.42c.24-.28.45-.53.64-.77a49,49,0,0,0-4.89,1.69Zm-6.41-2.87-1.58,1.81-.3.36.78-.19a25.52,25.52,0,0,0,3.69-1.27l1.18-.51,1.8-1.82c-1,.25-2.38.62-4.1,1.16Zm7.8-4.17Z" transform="translate(0 -0.62)"/><path class="d" d="M975.28,119.86l0,0h0Z" transform="translate(0 -0.62)"/><path class="a" d="M963.08,109.88c-.48-.74-4.22.09-6.32,2.65a7,7,0,0,0-1.2,2.16,18,18,0,0,0,2.08-.43A20.47,20.47,0,0,0,961,113C962.94,111,963.29,110.21,963.08,109.88Z" transform="translate(0 -0.62)"/><path class="a" d="M978.27,112.78c-.34-.35-1-.18-4.18.48l-4.26.87c1.6-2.49,1.63-3.43,1.31-3.81-.91-1-5.68,1-8.86,4.18a16.33,16.33,0,0,0-2.66,3.49,28.2,28.2,0,0,0,4.7-.8,26.94,26.94,0,0,0,4.06-1.4,20.25,20.25,0,0,1-1.18,2.56,22.34,22.34,0,0,1-2.53,3.72,22.57,22.57,0,0,0,6.71-.77,22.89,22.89,0,0,0,3.91-1.45C978.82,114.57,978.68,113.2,978.27,112.78Z" transform="translate(0 -0.62)"/><path class="a" d="M1006.28,127.31l0,0-.05,0Z" transform="translate(0 -0.62)"/><path class="a" d="M1013,126.19a24.49,24.49,0,0,0-9.56,3.19c3.65-5.33,3-6.48,2.75-6.77s-1.15-.29-4.37.4c-2.08.44-3.91.85-5.45,1.2a10.11,10.11,0,0,0,2.78-2.38c.81-1,1.88-2.33,1.53-3-.66-1.2-6.14.47-9.44,1.78a40.19,40.19,0,0,0-5.47,2.66,25.16,25.16,0,0,1-1.82,2.06,26,26,0,0,1-3,2.65,48,48,0,0,0,7.93-.17,48.5,48.5,0,0,0,5-.79,32.25,32.25,0,0,1-3.65,3.23,33,33,0,0,1-3.37,2.23,31.64,31.64,0,0,0,8.36-.3,30.23,30.23,0,0,0,4-1L996,134a28.09,28.09,0,0,0,18.15-4.7,25.47,25.47,0,0,0,3.69-3.19A24.72,24.72,0,0,0,1013,126.19Z" transform="translate(0 -0.62)"/><path class="a" d="M989,115.23c-.72-1.2-5.85.63-6.87,1a27.7,27.7,0,0,0-6.86,3.61l.34-.16c-.51.72-1,1.47-1.52,2.25-.77,1.19-1.47,2.35-2.12,3.48a65.33,65.33,0,0,0,9.12-1.6,37.89,37.89,0,0,0,3.34-2.65C985.64,120.11,989.76,116.44,989,115.23Z" transform="translate(0 -0.62)"/><path class="e" d="M1000.71,118.86c.35.64-.72,2-1.53,3a10.11,10.11,0,0,1-2.78,2.38c1.54-.35,3.37-.76,5.45-1.2,3.22-.69,4-.82,4.37-.4s.9,1.44-2.75,6.77a24.11,24.11,0,0,1,14.32-3.25c.65-.68,1.22-1.34,1.72-2a14.68,14.68,0,0,0-13.19,3.12l0,0h0l.05,0c6.94-5.89,2-8.36-4-6.3,2.16-1.83,2-2.74,1.92-3-.44-1.34-3.8-1.33-6.16-1.33a29,29,0,0,0-6.6.76c.08-.11,1.68-2.48.8-3.74-.48-.67-1.5-.79-3.51-.59a30.63,30.63,0,0,0-8.82,2.29q3.24-3.77,2.48-4.91-1-1.58-9.59,1.78,2.61-2.64,2.1-3.59-.81-1.5-9.51,1.23c1.56-1.12,1.74-1.65,1.64-1.93-.3-.87-3.84-.49-6.19.09a18.41,18.41,0,0,0-5.44,2.34L952.13,115a20.47,20.47,0,0,0,3.43-.27,7,7,0,0,1,1.2-2.16c2.1-2.56,5.84-3.39,6.32-2.65.21.33-.14,1.16-2.12,3.15l.32-.15c-.64.74-1.3,1.53-1.95,2.38s-1.43,1.91-2,2.82c.71,0,1.49,0,2.33-.09a16.33,16.33,0,0,1,2.66-3.49c3.18-3.17,8-5.22,8.86-4.18.32.38.29,1.32-1.31,3.81l4.26-.87c3.2-.66,3.84-.83,4.18-.48s.55,1.79-3,7.07h0a27.7,27.7,0,0,1,6.86-3.61c1-.37,6.15-2.2,6.87-1s-3.4,4.88-4.57,5.93a37.89,37.89,0,0,1-3.34,2.65l.27-.06c1.88-.48,3.63-1,5.25-1.57-.25.36-.54.74-.85,1.12a40.19,40.19,0,0,1,5.47-2.66C994.57,119.33,1000.05,117.66,1000.71,118.86Z" transform="translate(0 -0.62)"/><path class="a" d="M942.09,143.83c1.68,0,3.46,0,5.34-.1a72.52,72.52,0,0,0,8.07-.9,14.82,14.82,0,0,1-5.67,7.06,34.2,34.2,0,0,0,10.74-.87,10.89,10.89,0,0,1-2.3,4.3,10.62,10.62,0,0,1-2,1.77A18.71,18.71,0,0,0,966.79,153a10.07,10.07,0,0,1-2.24,5.46,30.64,30.64,0,0,0,10.53-1.77,7.67,7.67,0,0,1-1.81,3.93,7.33,7.33,0,0,1-9.12,1.62l-1-1.54a12.94,12.94,0,0,1-4.43-.11c-2.85-.58-6.13-2.29-5.94-3.47,0-.26.27-.64,1.28-1A14.12,14.12,0,0,1,950.5,155c-.54-.26-4.4-2.13-4.12-3.81a1.35,1.35,0,0,1,.46-.77,10.91,10.91,0,0,1-2.09-1.74A11.38,11.38,0,0,1,942.09,143.83Z" transform="translate(0 -0.62)"/><path class="b" d="M895.4,70.46a211.78,211.78,0,0,1,29.93,2.47l-1,6.62a68.27,68.27,0,0,1,28.87-10.19,99.56,99.56,0,0,0,15.73,8,99.77,99.77,0,0,0,12.92,4.19l8.57-3.93L989,83.81c15.33-.82,25.66,2.58,32.28,5.86,7,3.45,11.71,7.71,22,11.19a71.6,71.6,0,0,0,11.51,2.83,226.72,226.72,0,0,0-78.36-35.76c-24.31-5.79-44.14-6.08-56.58-6.19,0,0-39.94-.35-79,10.62a192.52,192.52,0,0,0-29.73,10.75A187.87,187.87,0,0,0,794.08,92l1.8,1.42C821.25,81.24,855.27,70,895.4,70.46Z" transform="translate(0 -0.62)"/><path class="c" d="M1043.3,100.86c-10.32-3.48-15-7.74-22-11.19-6.62-3.28-16.95-6.68-32.28-5.86l1.44-6.2-8.57,3.93a99.77,99.77,0,0,1-12.92-4.19,99.56,99.56,0,0,1-15.73-8,68.27,68.27,0,0,0-28.87,10.19l1-6.62a211.78,211.78,0,0,0-29.93-2.47c-40.13-.42-74.15,10.78-99.52,23a365.78,365.78,0,0,0,32.44,23.09c70.67,29.07,102.56-21.29,108.88-21,4.26.18,8.3.56,12.12,1.06a24.47,24.47,0,0,1-2-3.37,25.3,25.3,0,0,1-1.43-3.67,29.93,29.93,0,0,0,5.54,3.85C962,99.08,972.64,96.55,974.63,96a32.53,32.53,0,0,0,7.59-3c18.14-2.65,30.3.59,38.16,4.16s16,9.58,30,11.51a63.39,63.39,0,0,0,11.92.5c-2.51-1.92-5-3.74-7.5-5.5A71.6,71.6,0,0,1,1043.3,100.86Z" transform="translate(0 -0.62)"/><path class="f" d="M1050.39,108.69c-14-1.93-22.16-7.94-30-11.51s-20-6.81-38.16-4.16a32.53,32.53,0,0,1-7.59,3c-2,.51-12.64,3-23.17-2.63a29.93,29.93,0,0,1-5.54-3.85,25.3,25.3,0,0,0,1.43,3.67,24.47,24.47,0,0,0,2,3.37c-3.82-.5-7.86-.88-12.12-1.06a140.88,140.88,0,0,0-39.34,3.88l6.87.29a60.91,60.91,0,0,0-14.06,2.09c-3.57,1-1.67,1-4.28,2.19,8.41-6.13,6.56-13.06,13.49-21.68-2.63,1.13-30,29.63-32,32.8,0,0,7.44-25.88,7.92-26.68a285.65,285.65,0,0,0-20.67,28.2c.93-17.81.18-22.78.18-22.78s-5,6.65-6.32,13.18c-2.87.56-12,3.62-20.67,9.52,15.47,8.46,125.36,59.25,140.53,50.08a15.06,15.06,0,0,0,4.15-3.77,30.74,30.74,0,0,1-18.74-3.62c-6.26-3.57-9.43-8.52-11.44-11.68a42.8,42.8,0,0,1-6.46-18.84c3.45-5.27,12.27-17,27.22-20.7,8.15-2,15.93-1.15,23.1.88,10-.34,16.15-.07,19.49,2.07a68.39,68.39,0,0,0,14.56,7.28,67,67,0,0,0,7.62,2.23,38.51,38.51,0,0,1-8.92-8.86,23.91,23.91,0,0,0,11.17,4.83,23.25,23.25,0,0,0,6.86,0,39.34,39.34,0,0,1-4.39-2.88,40.65,40.65,0,0,1-3.92-3.4A52.09,52.09,0,0,0,1049,112a48.88,48.88,0,0,0,10.83-2.68A62.84,62.84,0,0,1,1050.39,108.69Z" transform="translate(0 -0.62)"/><path class="g" d="M1059.82,109.27A48.88,48.88,0,0,1,1049,112a52.09,52.09,0,0,1-19.84-1.79,40.65,40.65,0,0,0,3.92,3.4,39.34,39.34,0,0,0,4.39,2.88,23.25,23.25,0,0,1-6.86,0,23.91,23.91,0,0,1-11.17-4.83,38.51,38.51,0,0,0,8.92,8.86,67,67,0,0,1-7.62-2.23c-11.17-4-26.22-18.38-55.35-12,6.14,1.74,33.15,6.94,38.27,9.25a95.66,95.66,0,0,1,15.85,9.09l1.89,2.28a90.13,90.13,0,0,0,27.87-9.27,89.5,89.5,0,0,0,13-8.43C1061.58,109.23,1060.74,109.26,1059.82,109.27Z" transform="translate(0 -0.62)"/><path class="c" d="M978.74,89.07c-2.13-.65-4.33-1.41-6.59-2.31a88.14,88.14,0,0,1-17.51-9.39,24.78,24.78,0,0,0-13.76,6.14c.94-.22,2-.43,3.1-.58a31.41,31.41,0,0,1,3.65-.29,21.12,21.12,0,0,0,4.39,6,21.73,21.73,0,0,0,14.84,6c9.61,0,15.43-6.8,16.25-7.78Z" transform="translate(0 -0.62)"/><path class="c" d="M888.35,85.21a70.56,70.56,0,0,0-22.78,37.71A52.34,52.34,0,0,1,875.8,88.43Z" transform="translate(0 -0.62)"/><path class="c" d="M915,79a122.36,122.36,0,0,0-36.51,43.31,74.66,74.66,0,0,1,21.37-40Z" transform="translate(0 -0.62)"/><path class="c" d="M865.78,90.48a43.82,43.82,0,0,0-10.73,29.58,34.53,34.53,0,0,1-2.34-16,33.89,33.89,0,0,1,2.6-10.25Z" transform="translate(0 -0.62)"/><path class="a" d="M973.81,89.5a49,49,0,0,1-4.76-1.33,53.29,53.29,0,0,1-8.57-3.69,7.64,7.64,0,0,0,13.33,5Z" transform="translate(0 -0.62)"/><path class="c" d="M918.26,61.68A142.41,142.41,0,0,0,896.1,41.91c-27.83-20-57.56-26.46-75.11-28.8a79.38,79.38,0,0,1,15.81,15A73.32,73.32,0,0,1,845,40.91a22.17,22.17,0,0,1,8.47,2l-5.89,4.3c.35,1.88.67,3.83.93,5.84a110.63,110.63,0,0,1,.91,17.83c6.78-1.92,14.19-3.7,22.2-5.17A247.34,247.34,0,0,1,918.26,61.68Z" transform="translate(0 -0.62)"/><path class="b" d="M913.58,61.67c-13.64-14.13-37.41-31.14-67.14-40.47,37.37,14,48.62,31.43,56.95,40.8C902.87,62.18,913.58,61.67,913.58,61.67Z" transform="translate(0 -0.62)"/><path class="c" d="M1063.86,107.16c-2.43-1.86-4.91-3.67-7.58-5.56A229.33,229.33,0,0,0,977,65.44c-25.09-6-45.95-6.16-57.15-6.26-.4,0-40.75-.23-79.67,10.72a197,197,0,0,0-30.1,10.89,192.31,192.31,0,0,0-17.33,9l-3.18,1.88L792.48,94l1.21,1,.6.47A371.88,371.88,0,0,0,827,118.71c22.91,14.5,121.1,65.7,143.38,50a21.57,21.57,0,0,0,4.7-4.31l3.64-4.79-6,.71a27.88,27.88,0,0,1-17.18-3.3c-5.71-3.26-8.62-7.82-10.55-10.83a39.85,39.85,0,0,1-6-16.83c4.07-6,12.39-15.66,25.2-18.86,14.25-3.56,27.64,2.49,38.39,7.35a92.56,92.56,0,0,1,15.16,8.66l2.61,3.13,1.44-.23a92.75,92.75,0,0,0,28.65-9.53,91.82,91.82,0,0,0,13.43-8.67l2.62-2Zm-15.79,8.2a87.62,87.62,0,0,1-25.65,8.77l-1.17-1.41-.27-.19a99.67,99.67,0,0,0-16.28-9.34C993.22,108,979,101.55,963,105.54c-15.05,3.76-24.47,15.26-28.74,21.78l-.5.76.09.9a45.21,45.21,0,0,0,6.85,20c2.07,3.23,5.52,8.64,12.33,12.52a31.82,31.82,0,0,0,12.8,4c-16.42,9.15-120.24-41.06-136.11-51.1a365.69,365.69,0,0,1-31.06-22c4.43-2.49,9-4.82,13.63-6.94A192.13,192.13,0,0,1,841.6,74.82c38.2-10.74,77.85-10.53,78.24-10.53,11.78.11,31.49.28,56,6.12a224.16,224.16,0,0,1,77.48,35.37c1.63,1.15,3.19,2.28,4.71,3.4A85.72,85.72,0,0,1,1048.07,115.36Z" transform="translate(0 -0.62)"/></svg>