<svg xmlns="http://www.w3.org/2000/svg" viewBox="0 0 1080.17 638.83"><defs><style>.a{fill:#fff;}.b{fill:#132c48;}.c{fill:none;}.d{fill:#ccc;}.e{fill:#6bbfba;}.f{fill:#dff1f0;}.g{fill:#bce3e1;}</style></defs><path class="a" d="M1044.22,359.31l-9.16-7c-8.81-6.72-17.76-13.29-27.39-20.07-89-62.77-185.66-106.86-287.26-131-90.52-21.54-165.22-22.31-205.67-22.67a530.56,530.56,0,0,0-63.15-53.42C374.2,69.39,278.54,32.63,175,18.82L37.11.44,149.9,81.77a240.85,240.85,0,0,1,48,45.58,221.52,221.52,0,0,1,24.44,38.28l5.55,11.09.3,1.58c1.14,6.1,2.14,12.31,3,18.45s1.48,12.48,2,18.79l-5.42,1.5A717.87,717.87,0,0,0,118,256.75a704.5,704.5,0,0,0-63.34,33.06l-11,6.51L.13,321.92,39.39,353.6l10,8q2.22,1.78,4.46,3.55l2.08,1.65a1325.12,1325.12,0,0,0,116.44,82.88c40.06,25.35,127.1,71.69,215.92,111.21,116.84,52,204.24,78.33,259.78,78.33,26.64,0,47.07-5.84,62.46-17.86,8-6.26,16.35-13.06,22.66-21.37L745.8,583.4l50.25-66.33c25.79-1.75,49.92-10,70-24l2.3-.37,5-.81A356.81,356.81,0,0,0,983.6,455.15a354.2,354.2,0,0,0,51.76-33.42l9.09-7.06,35.85-27.83Z" transform="translate(-0.13 -0.44)"/><path class="b" d="M734,426.72a94.81,94.81,0,0,0-70.55,75.79,20.48,20.48,0,0,0,7,2.13A21.52,21.52,0,0,0,683.22,502a18.85,18.85,0,0,1-10,17.83,42.51,42.51,0,0,0,28.31-8.33,46.79,46.79,0,0,1-7.27,23.14,13.5,13.5,0,0,0,9.9,0,13.27,13.27,0,0,0,6.18-5.26,24.3,24.3,0,0,1-3.9,16.81,18.59,18.59,0,0,0,14.2-6,47.21,47.21,0,0,1-5.08,14.52,48.57,48.57,0,0,1-19.39,19c-20.17,3.82-35.78,1.32-46-1.57-44.7-12.64-77.77-58.72-87.23-117a165.38,165.38,0,0,1,34.9-42.09c36.35-31.31,76.08-37.36,90.14-39.5,90.67-13.81,163.92,51.81,173.9,61-.33,1.55-.66,3.1-1,4.64L810.78,457a92,92,0,0,0-21.16-17.33C767,426.18,744.41,426.07,734,426.72Z" transform="translate(-0.13 -0.44)"/><path class="b" d="M791.59,482.41a116.41,116.41,0,0,1-14.28-.18l-21.43-1.6,3.65-3.13a119.9,119.9,0,0,1-14-.52l-27.64-2.67,22-12.65q-7.23.16-14.44-.28l-24-1.46,13.87-10.44c-6.45,1.2-13,2.15-19.45,2.82l-17.14,1.76,8.25-14.51a88.59,88.59,0,0,1-17.84,1.2l-18.28-.62,11.8-14c.31-.36.61-.73.91-1.1a105.3,105.3,0,0,1-19.76,1.84H627l7.59-11.24a80.17,80.17,0,0,1-8.91.41l-17.2-.17,22.78-31.36,1.43-.91a73,73,0,0,1,21.49-9.23c15.77-3.92,25.93-3.16,30.32,2.25l.5-.13,8.1-4-2.41,2.78c11.5-2.1,18.82-.87,22.31,5.62a12.8,12.8,0,0,1,.79,1.8c12.23-3.29,20.48-2.8,24.82,3.81a11.91,11.91,0,0,1,2,7,108,108,0,0,1,11.68-1.83c5.68-.57,15.18-1.52,20.32,5.75a13.69,13.69,0,0,1,2.5,7.09c3.47-.33,7-.5,10.42-.5,11.7,0,26.27,0,29.82,10.7a11.54,11.54,0,0,1,.48,2c7.73.46,13.77,3.5,16.84,8.9a15.18,15.18,0,0,1,1.7,4.49,58.63,58.63,0,0,1,27.61.41l13.13,3.37-8.34,10.69a97.9,97.9,0,0,1-20.65,19.72C827.25,477.64,806.88,481.65,791.59,482.41Zm23.47-29.1-11.56,9.9a81.65,81.65,0,0,0,32.43-13.42q1.83-1.29,3.58-2.68a43.94,43.94,0,0,0-19.42,9.31l-.5.43-1.06.89-1.31.55Zm-23.51-12.83L777.1,455.36c-1,1-2,2-3,2.94a98.83,98.83,0,0,0,12.44-3l24.55-7.65-2.09-3-1-1.2.14-.12h0l.57-.47c4.53-3.92,6.58-6.64,7.5-8.21-2.38-.36-6.89-.28-13,1.84ZM762,424.83l-9,12.61c-1.48,2.06-3,4.08-4.69,6.05,1.44-.11,2.88-.25,4.32-.4a156.2,156.2,0,0,0,16.33-2.59l4.18-.89,20.75-17.67c-3-.16-6.3-.16-8.23-.15a92.24,92.24,0,0,0-20.92,2.41ZM722,418.32l-7.29,10.36c-.75,1.06-1.5,2.15-2.25,3.25q6.45-1.21,12.79-2.83c5.89-1.48,11.79-3.24,17.54-5.22l4.3-1.48,8.23-11.89c.27-.4.54-.86.8-1.33-.6,0-1.28.1-2,.18A98.14,98.14,0,0,0,726,416.65Zm-30-8.89-1.48,3.84a86.5,86.5,0,0,1-3.68,8.22c1.17-.25,2.33-.53,3.49-.84a70.17,70.17,0,0,0,13.17-5l2.18-1.09,10.19-11.87q1.25-1.46,2.22-2.67a172.25,172.25,0,0,0-17,5.84Zm-22.28-9.95-5.47,6.3-1,1.22c.9-.21,1.79-.42,2.69-.65a89,89,0,0,0,12.82-4.41l4.1-1.78,6.27-6.31c-3.61.86-8.27,2.14-14.27,4ZM696.83,385Z" transform="translate(-0.13 -0.44)"/><path class="c" d="M706.22,424.19l.07-.05-.06,0Z" transform="translate(-0.13 -0.44)"/><path class="a" d="M663.83,389.54c-1.66-2.57-14.67.32-21.94,9.2a24.93,24.93,0,0,0-4.19,7.52,67.56,67.56,0,0,0,7.24-1.52,69.46,69.46,0,0,0,11.54-4.28C663.35,393.58,664.57,390.7,663.83,389.54Z" transform="translate(-0.13 -0.44)"/><path class="a" d="M716.57,399.59c-1.18-1.19-3.39-.62-14.52,1.7-6.29,1.3-11.43,2.33-14.78,3,5.57-8.63,5.68-11.9,4.54-13.21-3.15-3.63-19.7,3.51-30.76,14.5a56.62,56.62,0,0,0-9.24,12.12,96.79,96.79,0,0,0,16.31-2.77,95.4,95.4,0,0,0,14.13-4.85,76.34,76.34,0,0,1-12.91,21.8,78.39,78.39,0,0,0,36.89-7.72C718.48,405.83,718,401.07,716.57,399.59Z" transform="translate(-0.13 -0.44)"/><path class="a" d="M813.87,450.07,814,450l-.18.14Z" transform="translate(-0.13 -0.44)"/><path class="a" d="M837.32,446.2a85.14,85.14,0,0,0-33.2,11.05c12.66-18.48,10.49-22.49,9.55-23.51-1.33-1.43-4-1-15.19,1.4-7.21,1.54-13.59,3-18.94,4.18a35.3,35.3,0,0,0,9.65-8.26c2.82-3.49,6.56-8.11,5.34-10.33-2.3-4.18-21.35,1.62-32.8,6.17a140.94,140.94,0,0,0-19,9.27c-1.84,2.29-3.91,4.69-6.31,7.14a94.26,94.26,0,0,1-10.51,9.21,166.2,166.2,0,0,0,27.56-.6,168.52,168.52,0,0,0,17.25-2.74,112,112,0,0,1-12.67,11.2,110.66,110.66,0,0,1-11.71,7.76,108.28,108.28,0,0,0,42.87-4.38L778,473.39c10.67.79,38,1.32,63.07-16.35A87.72,87.72,0,0,0,853.86,446,83.33,83.33,0,0,0,837.32,446.2Z" transform="translate(-0.13 -0.44)"/><path class="a" d="M754,408.13c-2.49-4.17-20.32,2.19-23.85,3.45a95.93,95.93,0,0,0-23.85,12.56c.39-.19.82-.38,1.19-.57-1.75,2.5-3.52,5.11-5.28,7.82-2.68,4.13-5.12,8.17-7.34,12.08a227.43,227.43,0,0,0,31.66-5.55,133.44,133.44,0,0,0,11.61-9.21C742.2,425.08,756.49,412.33,754,408.13Z" transform="translate(-0.13 -0.44)"/><path class="d" d="M794.53,420.73c1.22,2.22-2.52,6.84-5.34,10.33a35.3,35.3,0,0,1-9.65,8.26c5.35-1.22,11.73-2.64,18.94-4.18,11.2-2.4,13.86-2.83,15.19-1.4.94,1,3.11,5-9.55,23.51a85.14,85.14,0,0,1,33.2-11.05,83.33,83.33,0,0,1,16.54-.21c2.25-2.36,4.23-4.68,5.95-6.88-16.69-4.29-33.13.29-45.81,10.84l-.13.12,0,0L814,450c24.11-20.47,7-29.05-13.69-21.89,7.47-6.36,7-9.51,6.66-10.53-1.53-4.63-13.21-4.62-21.4-4.62a101.59,101.59,0,0,0-22.92,2.65c.26-.38,5.84-8.63,2.76-13-1.65-2.33-5.2-2.74-12.2-2a106.64,106.64,0,0,0-30.6,7.93q11.22-13.06,8.61-17-3.6-5.49-33.34,6.18,9.11-9.15,7.33-12.46-2.82-5.24-33.05,4.28c5.43-3.9,6.05-5.75,5.71-6.71-1.06-3-13.36-1.72-21.53.31a64.32,64.32,0,0,0-18.87,8.11L625.79,407.2a71.34,71.34,0,0,0,11.91-.94,24.93,24.93,0,0,1,4.19-7.52c7.27-8.88,20.28-11.77,21.94-9.2.74,1.16-.48,4-7.35,10.92.35-.16.74-.33,1.08-.5-2.22,2.56-4.49,5.32-6.77,8.27-2.6,3.36-4.95,6.64-7.08,9.8,2.47,0,5.18-.09,8.1-.33a56.62,56.62,0,0,1,9.24-12.12c11.06-11,27.61-18.13,30.76-14.5,1.14,1.31,1,4.58-4.54,13.21,3.35-.67,8.49-1.7,14.78-3,11.13-2.32,13.34-2.89,14.52-1.7,1.45,1.48,1.91,6.24-10.34,24.57l.06,0a95.93,95.93,0,0,1,23.85-12.56c3.53-1.26,21.36-7.62,23.85-3.45s-11.79,16.95-15.86,20.58a133.44,133.44,0,0,1-11.61,9.21c.31-.08.62-.13.94-.21,6.52-1.65,12.61-3.5,18.25-5.44-.89,1.24-1.9,2.56-3,3.9a140.94,140.94,0,0,1,19-9.27C773.18,422.35,792.23,416.55,794.53,420.73Z" transform="translate(-0.13 -0.44)"/><path class="a" d="M590.91,507.46c5.84.11,12,0,18.57-.34a251.3,251.3,0,0,0,28-3.13,51,51,0,0,1-19.7,24.5,118.09,118.09,0,0,0,37.31-3,37.75,37.75,0,0,1-8,14.91,36.63,36.63,0,0,1-7,6.15,64.39,64.39,0,0,0,36.52-7.32,34.81,34.81,0,0,1-7.77,19A105.67,105.67,0,0,0,705.51,552a26.62,26.62,0,0,1-6.3,13.67,25.49,25.49,0,0,1-31.67,5.63q-1.72-2.67-3.46-5.34a45.08,45.08,0,0,1-15.41-.4c-9.88-2-21.28-7.94-20.63-12.06.14-.9.94-2.21,4.47-3.41a48.52,48.52,0,0,1-12.39-4c-1.87-.9-15.28-7.39-14.31-13.23a4.84,4.84,0,0,1,1.61-2.69,38.26,38.26,0,0,1-7.27-6A39.63,39.63,0,0,1,590.91,507.46Z" transform="translate(-0.13 -0.44)"/><path class="e" d="M428.77,252.64a729.87,729.87,0,0,1,103.94,8.57q-1.71,11.51-3.43,23a237,237,0,0,1,100.25-35.4,346.51,346.51,0,0,0,54.66,27.75,345.47,345.47,0,0,0,44.86,14.53l29.78-13.65q-2.52,10.79-5,21.56c53.25-2.85,89.14,8.95,112.14,20.35,24.22,12,40.68,26.77,76.52,38.85a249.51,249.51,0,0,0,40,9.85C872.55,290.56,771.48,258.39,710.27,243.82c-84.44-20.1-153.32-21.1-196.54-21.48,0,0-138.7-1.23-274.22,36.87a673,673,0,0,0-103.26,37.35,657.47,657.47,0,0,0-59.38,31c2,1.65,4.16,3.31,6.23,5C171.2,290.06,289.36,251.16,428.77,252.64Z" transform="translate(-0.13 -0.44)"/><path class="b" d="M942.46,358.2c-35.84-12.08-52.3-26.86-76.52-38.85-23-11.4-58.89-23.2-112.14-20.35q2.52-10.77,5-21.56l-29.78,13.65a345.47,345.47,0,0,1-44.86-14.53,346.51,346.51,0,0,1-54.66-27.75,237,237,0,0,0-100.25,35.4q1.71-11.5,3.43-23a729.87,729.87,0,0,0-103.94-8.57C289.36,251.16,171.2,290.06,83.1,332.52a1277.32,1277.32,0,0,0,112.66,80.19c245.46,101,356.24-73.94,378.19-73,14.77.64,28.82,1.94,42.09,3.7A86,86,0,0,1,604.24,319a103.46,103.46,0,0,0,19.24,13.37C660,352,697,343.24,703.94,341.47A112.66,112.66,0,0,0,730.31,331c63-9.2,105.25,2,132.53,14.44s55.57,33.28,104.25,40a219.3,219.3,0,0,0,41.4,1.73c-8.74-6.67-17.42-13-26.06-19.09A249.51,249.51,0,0,1,942.46,358.2Z" transform="translate(-0.13 -0.44)"/><path class="f" d="M967.09,385.41c-48.68-6.7-77-27.57-104.25-40S793.32,321.79,730.31,331a112.66,112.66,0,0,1-26.37,10.48C697,343.24,660,352,623.48,332.33A103.46,103.46,0,0,1,604.24,319,86,86,0,0,0,616,343.43c-13.27-1.76-27.32-3.06-42.09-3.7a489,489,0,0,0-136.64,13.49l23.86,1a210.58,210.58,0,0,0-48.84,7.26c-12.39,3.37-5.8,3.47-14.86,7.61,29.19-21.28,22.77-45.37,46.85-75.3C435.18,297.69,340,396.7,333.16,407.69c0,0,25.84-89.88,27.52-92.66-47.54,58.21-69.61,94.86-71.81,98,3.27-61.86.66-79.12.66-79.12s-17.3,23.1-22,45.78c-10,2-41.66,12.56-71.8,33.07,105.74,57.81,169.78,90.83,430.9,176.15,8.19,2.67,34.75,11.35,57.22-2.23a51.5,51.5,0,0,0,14.4-13.09c-10.91,1.3-37.92,3-65.1-12.56-21.74-12.41-32.72-29.59-39.74-40.57A149.31,149.31,0,0,1,571,455c12-18.3,42.64-58.93,94.54-71.9,28.31-7.07,55.33-4,80.26,3.05,34.63-1.17,56.09-.23,67.68,7.19a236.9,236.9,0,0,0,77,33.05,134.45,134.45,0,0,1-31-30.79,83.24,83.24,0,0,0,38.82,16.79,81.22,81.22,0,0,0,23.81,0,137.13,137.13,0,0,1-28.86-21.82,180.85,180.85,0,0,0,68.92,6.23c13.63-1.42,27.11-5.68,37.59-9.32A218.51,218.51,0,0,1,967.09,385.41Z" transform="translate(-0.13 -0.44)"/><path class="g" d="M999.81,387.42c-10.48,3.64-24,7.9-37.59,9.32a180.85,180.85,0,0,1-68.92-6.23,137.13,137.13,0,0,0,28.86,21.82,81.22,81.22,0,0,1-23.81,0,83.24,83.24,0,0,1-38.82-16.79,134.45,134.45,0,0,0,31,30.79,235.62,235.62,0,0,1-26.46-7.77C825.26,404.69,773,354.79,671.82,377c21.34,6,115.14,24.1,132.9,32.13a330.8,330.8,0,0,1,55.07,31.58l6.56,7.9a313.46,313.46,0,0,0,96.79-32.21,309.62,309.62,0,0,0,45.35-29.27C1005.94,387.27,1003,387.38,999.81,387.42Z" transform="translate(-0.13 -0.44)"/><path class="b" d="M718.21,317.26c-7.38-2.26-15-4.91-22.89-8a305.11,305.11,0,0,1-60.81-32.6A85.9,85.9,0,0,0,586.74,298c3.25-.78,6.84-1.49,10.75-2a110.08,110.08,0,0,1,12.66-1,73.78,73.78,0,0,0,15.25,20.94c4.46,4.26,23.14,21.14,51.54,21,33.39-.14,53.61-23.64,56.45-27Z" transform="translate(-0.13 -0.44)"/><path class="b" d="M404.28,303.87a244.86,244.86,0,0,0-37.64,40.6,248.75,248.75,0,0,0-41.49,90.35A181.77,181.77,0,0,1,360.68,315Z" transform="translate(-0.13 -0.44)"/><path class="b" d="M496.91,282.18A425.38,425.38,0,0,0,370.09,432.6a259.55,259.55,0,0,1,74.23-138.82Z" transform="translate(-0.13 -0.44)"/><path class="b" d="M325.89,322.16a152,152,0,0,0-37.27,102.75,120.13,120.13,0,0,1-8.15-55.46,118.45,118.45,0,0,1,9.06-35.59Z" transform="translate(-0.13 -0.44)"/><path class="a" d="M701.08,318.77c-5.2-1.2-10.73-2.71-16.51-4.62a183.84,183.84,0,0,1-29.76-12.84,26.5,26.5,0,0,0,46.27,17.46Z" transform="translate(-0.13 -0.44)"/><path class="b" d="M508.15,222.14a492.5,492.5,0,0,0-77-68.67c-96.64-69.6-199.89-91.9-260.85-100a276.33,276.33,0,0,1,54.91,52.21A255.55,255.55,0,0,1,253.54,150a77.32,77.32,0,0,1,12.31,1.41A75.52,75.52,0,0,1,283,156.94l-20.47,14.91q1.85,9.83,3.25,20.31a383.84,383.84,0,0,1,3.16,61.91c23.52-6.66,49.26-12.83,77.08-17.94A856.8,856.8,0,0,1,508.15,222.14Z" transform="translate(-0.13 -0.44)"/><path class="e" d="M491.91,222.08C444.53,173,362,113.92,258.7,81.55,388.5,130.2,427.57,190.68,456.52,223.23,454.7,223.87,491.91,222.08,491.91,222.08Z" transform="translate(-0.13 -0.44)"/><path class="b" d="M1013.87,380.09c-8.44-6.44-17-12.75-26.33-19.29-85.36-60.2-178-102.47-275.21-125.61-87.15-20.74-159.6-21.38-198.52-21.73-1.4,0-141.53-.8-276.7,37.21A684.34,684.34,0,0,0,132.55,288.5a669.37,669.37,0,0,0-60.18,31.41l-11.05,6.51,10,8c1.39,1.12,2.8,2.23,4.2,3.35l2.09,1.65A1290,1290,0,0,0,191,420.21c81.29,51.43,427.61,228.65,498,173.67,6.67-5.21,12.73-10.19,16.36-15L718,562.27l-20.74,2.46c-14.94,1.78-37.44,1.23-59.67-11.45-19.84-11.33-30-27.16-36.65-37.64a138.61,138.61,0,0,1-20.74-58.43c14.14-20.8,43-54.41,87.52-65.52,49.53-12.37,96,8.64,133.37,25.53a324.11,324.11,0,0,1,52.64,30.07l9,10.9,5-.8a322.12,322.12,0,0,0,99.53-33.13,319.78,319.78,0,0,0,46.64-30.11l9.1-7.07ZM959,408.57A304,304,0,0,1,869.91,439l-4-4.88-1-.67a341.21,341.21,0,0,0-56.54-32.43c-39.86-18-89.45-40.44-145-26.58-52.27,13.06-85,53-99.82,75.64l-1.72,2.63.32,3.13A156.62,156.62,0,0,0,586,525.19c7.17,11.22,19.17,30,42.81,43.5a110.42,110.42,0,0,0,44.48,14C608.14,610.44,260.15,443,200.5,405.21A1271.79,1271.79,0,0,1,92.61,328.74C108,320.08,123.89,312,140,304.62a667.76,667.76,0,0,1,102-36.87c132.67-37.3,270.37-36.56,271.73-36.54,40.91.36,109.37,1,194.57,21.24,95,22.62,185.58,63.95,269.1,122.85,5.67,4,11.09,7.91,16.37,11.81A301.34,301.34,0,0,1,959,408.57Z" transform="translate(-0.13 -0.44)"/></svg>