<?xml version="1.0" standalone="no"?>
<!DOCTYPE svg PUBLIC "-//W3C//DTD SVG 20010904//EN"
 "http://www.w3.org/TR/2001/REC-SVG-20010904/DTD/svg10.dtd">
<svg version="1.0" xmlns="http://www.w3.org/2000/svg"
 width="4501.000000pt" height="4501.000000pt" viewBox="0 0 4501.000000 4501.000000"
 preserveAspectRatio="xMidYMid meet">
<metadata>
Created by potrace 1.14, written by Peter Selinger 2001-2017
</metadata>
<g transform="translate(0.000000,4501.000000) scale(0.100000,-0.100000)"
fill="#000000" stroke="none">
<path d="M6780 34027 c0 -3 57 -46 126 -97 252 -185 576 -450 879 -719 176
-156 721 -702 880 -881 627 -708 1119 -1414 1540 -2210 54 -102 99 -187 101
-189 2 -2 58 -7 126 -12 238 -17 454 -57 693 -126 124 -36 425 -151 425 -162
0 -3 -192 -145 -426 -316 -235 -170 -429 -315 -431 -322 -3 -7 9 -90 26 -185
147 -826 241 -1837 241 -2583 l0 -230 -303 -74 c-955 -233 -2098 -568 -2938
-860 -1636 -568 -3109 -1229 -4604 -2066 -355 -199 -968 -560 -972 -571 -2 -9
191 -166 666 -543 3447 -2738 6902 -4873 11016 -6808 3030 -1425 6272 -2653
9605 -3638 205 -61 245 -77 460 -181 259 -127 451 -229 638 -341 846 -505
1831 -668 2828 -467 388 78 708 189 1069 372 348 177 761 489 983 744 101 115
635 818 628 825 -6 6 -296 -24 -330 -34 -13 -4 1 20 41 68 129 157 245 359
318 553 35 94 95 305 95 335 0 7 -23 -6 -52 -31 -144 -123 -329 -197 -491
-198 l-58 0 21 30 c95 133 171 434 154 605 l-7 63 -76 -77 c-118 -118 -238
-171 -394 -171 -76 0 -207 26 -207 42 0 5 18 41 41 80 83 142 153 315 199 494
29 110 60 304 60 369 l0 35 -92 -61 c-170 -111 -329 -182 -533 -234 -166 -42
-288 -57 -445 -53 l-125 3 48 28 c66 39 181 150 229 220 85 125 133 268 139
412 5 94 11 92 -111 41 -175 -72 -383 -84 -563 -31 -49 14 -106 34 -127 45
l-38 19 14 73 c66 352 206 752 382 1092 169 327 354 590 637 903 l30 33 240
25 c295 31 487 57 714 95 95 17 176 30 179 30 3 0 -126 -99 -287 -219 l-292
-219 53 -6 c118 -13 1099 -68 1324 -74 l241 -7 -453 -260 c-249 -143 -453
-262 -454 -265 0 -3 228 -27 508 -54 279 -27 572 -55 652 -63 80 -8 246 -17
369 -21 l225 -7 -72 -60 c-70 -59 -71 -60 -44 -67 15 -4 254 -24 532 -44 467
-34 528 -36 805 -31 180 3 354 12 435 21 975 117 1768 468 2440 1080 l136 123
82 -99 c68 -81 87 -97 105 -93 12 3 132 23 267 46 2177 363 4202 1224 5935
2523 163 121 549 419 573 441 12 11 -152 141 -713 562 -556 416 -1346 965
-1980 1375 -4441 2870 -9247 4616 -14325 5202 -1447 167 -2812 243 -4529 250
l-674 3 -202 209 c-301 311 -758 743 -1135 1075 -1928 1691 -4193 3046 -6706
4012 -1780 684 -3712 1184 -5649 1462 -137 19 -265 38 -282 41 -18 3 -33 3
-33 1z m11417 -10429 c-320 -335 -545 -593 -800 -920 -1042 -1338 -1756 -2890
-2101 -4566 -20 -95 -36 -181 -36 -190 0 -9 55 87 121 213 440 837 908 1588
1452 2330 172 234 388 515 396 515 3 0 84 18 180 40 453 105 981 180 1486 210
98 6 181 13 184 15 2 3 -4 5 -15 5 -81 -2 -894 35 -894 40 0 19 953 217 1415
294 1198 201 2246 288 3445 288 928 0 1669 -43 2490 -146 102 -13 186 -22 188
-21 2 2 -21 40 -51 86 -116 179 -199 333 -290 539 -59 134 -151 390 -143 398
3 2 33 -20 68 -50 86 -75 254 -202 379 -285 644 -431 1374 -678 2193 -743 167
-13 575 -13 747 0 427 33 779 103 1159 230 243 81 412 151 642 266 l169 85
137 19 c349 49 793 90 1182 110 254 13 873 13 1120 0 993 -53 1913 -239 2745
-558 364 -139 640 -269 1290 -609 519 -272 688 -357 925 -468 739 -346 1399
-569 2110 -714 484 -98 838 -139 1525 -179 l129 -7 -169 -116 c-1253 -858
-2605 -1473 -4075 -1853 -210 -55 -611 -144 -805 -180 -77 -15 -149 -28 -160
-31 -15 -3 -39 19 -105 98 -93 114 -114 130 -455 357 -847 566 -1633 978
-2915 1527 -1596 684 -2791 968 -3960 940 -1684 -41 -3186 -713 -4481 -2007
-415 -414 -759 -834 -1085 -1319 l-126 -188 22 -194 c121 -1081 458 -2036
1038 -2939 364 -566 671 -938 1050 -1271 685 -601 1556 -992 2465 -1105 l148
-18 -43 -22 c-129 -65 -374 -136 -583 -169 -135 -22 -515 -31 -675 -16 -400
37 -834 139 -1200 283 -243 96 -405 182 -645 342 -487 324 -1082 738 -1698
1180 -373 268 -688 454 -1082 638 -371 174 -730 310 -1134 428 -136 40 -334
89 -325 81 5 -5 77 -37 159 -72 195 -82 649 -311 840 -423 777 -457 1462
-1048 2029 -1751 57 -71 103 -131 101 -133 -1 -2 -47 19 -101 46 -314 157
-872 380 -1764 704 -151 55 -565 205 -920 333 -1567 566 -2442 896 -3505 1320
-2595 1036 -4879 2109 -7060 3318 -702 389 -1333 758 -2032 1189 l-293 181 48
30 c218 139 765 431 1092 582 346 160 751 323 1062 426 155 51 430 129 457
129 32 0 42 19 71 136 121 478 396 1061 767 1622 63 94 116 172 118 172 2 0
-14 -44 -36 -97 -136 -334 -256 -785 -308 -1163 -34 -252 -45 -407 -45 -685 0
-446 46 -817 155 -1250 40 -158 160 -532 196 -610 l18 -40 6 220 c4 121 7 236
8 256 1 29 35 90 172 300 679 1047 1483 2150 2477 3399 151 190 281 352 289
360 9 8 -23 -41 -70 -110 -876 -1288 -1346 -2808 -1347 -4355 0 -247 9 -485
19 -485 3 0 23 71 45 158 72 296 259 909 303 997 159 315 3398 3690 4397 4582
120 107 273 232 284 233 2 0 -79 -87 -181 -192z m9803 -412 c377 -161 746
-287 1129 -385 106 -28 195 -52 197 -54 7 -7 -101 -102 -170 -151 -141 -101
-307 -170 -480 -201 -101 -17 -272 -20 -363 -5 -474 77 -844 447 -928 929 -8
46 -15 103 -15 126 l0 42 223 -111 c122 -61 305 -147 407 -190z m1500 -3394
c0 -13 -68 -123 -110 -177 -22 -28 -74 -89 -117 -135 -43 -46 -69 -80 -58 -76
492 187 896 309 1020 308 33 -1 134 -16 225 -34 l165 -33 3 -56 c4 -70 -28
-160 -93 -268 -52 -87 -161 -235 -238 -323 -27 -32 -46 -58 -42 -58 4 0 71 24
149 54 448 172 982 286 1343 286 112 0 128 -2 205 -31 99 -38 104 -41 130 -93
46 -89 19 -239 -73 -415 -27 -52 -47 -96 -45 -99 3 -2 68 8 144 22 280 54 417
67 752 73 l316 5 324 -147 c179 -81 326 -148 328 -150 7 -6 -42 -92 -83 -145
-24 -30 -74 -85 -113 -122 -72 -70 -73 -78 -4 -54 161 57 444 93 599 77 91
-10 107 -15 221 -73 111 -56 127 -68 150 -108 20 -33 28 -62 30 -111 9 -160
-83 -328 -308 -563 l-105 -110 80 56 c253 175 536 300 819 359 l109 23 41 -23
c63 -36 526 -344 526 -351 0 -9 -241 -226 -340 -306 -204 -164 -508 -350 -755
-462 -470 -214 -949 -328 -1515 -362 -179 -11 -571 -5 -569 9 0 3 103 94 229
201 126 107 228 196 226 197 -1 1 -49 -11 -106 -27 -225 -64 -472 -113 -750
-147 -117 -15 -217 -18 -520 -17 -214 0 -385 4 -397 10 -20 8 -12 16 85 74
150 91 323 214 487 345 147 119 429 374 421 383 -3 2 -54 -5 -113 -17 -524
-102 -1120 -148 -1615 -126 l-168 7 88 70 c149 119 329 286 447 417 123 136
307 362 301 368 -2 3 -69 -16 -148 -42 -462 -149 -940 -266 -1405 -345 -204
-34 -569 -83 -589 -78 -17 4 177 328 364 608 164 246 157 234 146 228 -83 -44
-305 -134 -450 -181 -330 -108 -595 -154 -949 -164 -208 -6 -209 -6 -195 14 8
11 55 73 103 137 108 143 208 302 289 461 64 125 139 297 133 303 -2 2 -61
-18 -132 -46 -439 -172 -839 -254 -1352 -278 -139 -7 -143 -6 -133 12 40 73
328 455 477 633 47 56 84 105 82 108 -3 2 -28 -7 -55 -21 -210 -107 -551 -206
-822 -241 -69 -8 -141 -17 -160 -20 l-35 -4 47 29 c25 16 102 60 170 98 669
375 1429 602 2208 661 150 11 680 13 680 3z m-2904 -4999 c-70 -164 -155 -310
-269 -463 -95 -126 -298 -327 -425 -420 l-103 -75 73 -8 c114 -13 694 -1 843
17 235 28 590 89 650 112 13 5 12 -1 -1 -45 -88 -298 -296 -600 -543 -789
l-74 -57 119 -9 c147 -11 418 5 594 35 267 45 542 134 774 251 32 16 59 28 60
26 7 -8 -26 -184 -49 -263 -53 -181 -121 -321 -226 -467 l-49 -68 112 0 c412
0 972 97 1381 239 l59 20 -7 -42 c-20 -118 -93 -300 -166 -411 -48 -73 -22
-65 -279 -93 -213 -23 -649 -23 -858 1 -523 57 -963 185 -1402 406 -571 288
-1020 680 -1438 1253 -157 216 -492 745 -492 778 0 3 129 9 288 12 409 9 884
50 1267 111 218 35 200 40 161 -51z"/>
<path d="M28961 19594 c0 -11 3 -14 6 -6 3 7 2 16 -1 19 -3 4 -6 -2 -5 -13z"/>
<path d="M33068 18473 c7 -3 16 -2 19 1 4 3 -2 6 -13 5 -11 0 -14 -3 -6 -6z"/>
<path d="M35483 17353 c26 -2 67 -2 90 0 23 2 2 3 -48 3 -49 0 -68 -1 -42 -3z"/>
</g>
</svg>
